HIERARCHY
ROOT Hips
{
  OFFSET 2.26061 22.2878 23.7974
  CHANNELS 6 Xposition Yposition Zposition Zrotation Xrotation Yrotation
  JOINT LeftUpLeg
  {
    OFFSET 8.64259 1.95398 -2.38835
    CHANNELS 3 Zrotation Xrotation Yrotation
    JOINT LeftLeg
    {
      OFFSET 43.7702 0 0
      CHANNELS 3 Zrotation Xrotation Yrotation
      JOINT LeftFoot
      {
        OFFSET 40.6238 0 0
        CHANNELS 3 Zrotation Xrotation Yrotation
        JOINT LeftToeBase
        {
          OFFSET 12.7242 0 0
          CHANNELS 3 Zrotation Xrotation Yrotation
          End Site
          {
            OFFSET 0 0 0
          }
        }
      }
    }
  }
  JOINT RightUpLeg
  {
    OFFSET -8.2249 1.95398 -2.59336
    CHANNELS 3 Zrotation Xrotation Yrotation
    JOINT RightLeg
    {
      OFFSET 43.5653 0 0
      CHANNELS 3 Zrotation Xrotation Yrotation
      JOINT RightFoot
      {
        OFFSET 40.6238 0 0
        CHANNELS 3 Zrotation Xrotation Yrotation
        JOINT RightToeBase
        {
          OFFSET 12.7242 0 0
          CHANNELS 3 Zrotation Xrotation Yrotation
          End Site
          {
            OFFSET 0 0 0
          }
        }
      }
    }
  }
  JOINT Spine
  {
    OFFSET 0.165834 0.87714 6.61349
    CHANNELS 3 Zrotation Xrotation Yrotation
    JOINT Spine1
    {
      OFFSET 7.38963 1.71661e-005 0
      CHANNELS 3 Zrotation Xrotation Yrotation
      JOINT Spine2
      {
        OFFSET 11.9445 1.14441e-005 0
        CHANNELS 3 Zrotation Xrotation Yrotation
        JOINT Spine3
        {
          OFFSET 14.7254 4.19617e-005 0
          CHANNELS 3 Zrotation Xrotation Yrotation
          JOINT Spine4
          {
            OFFSET 10.9679 0 0
            CHANNELS 3 Zrotation Xrotation Yrotation
            JOINT RightShoulder
            {
              OFFSET 2.46616 -1.6653 3.69651
              CHANNELS 3 Zrotation Xrotation Yrotation
              JOINT RightArm
              {
                OFFSET 13.0012 0 0
                CHANNELS 3 Zrotation Xrotation Yrotation
                JOINT RightForeArm
                {
                  OFFSET 28.7848 1.52588e-005 0
                  CHANNELS 3 Zrotation Xrotation Yrotation
                  JOINT RightHand
                  {
                    OFFSET 26.5688 1.52588e-005 0
                    CHANNELS 3 Zrotation Xrotation Yrotation
                    End Site
                    {
                      OFFSET 0 0 0
                    }
                  }
                }
              }
            }
            JOINT LeftShoulder
            {
              OFFSET 2.38034 -1.29275 -3.7523
              CHANNELS 3 Zrotation Xrotation Yrotation
              JOINT LeftArm
              {
                OFFSET 16.3182 6.10351e-005 0
                CHANNELS 3 Zrotation Xrotation Yrotation
                JOINT LeftForeArm
                {
                  OFFSET 27.0901 0 0
                  CHANNELS 3 Zrotation Xrotation Yrotation
                  JOINT LeftHand
                  {
                    OFFSET 24.5451 1.52588e-005 0
                    CHANNELS 3 Zrotation Xrotation Yrotation
                    End Site
                    {
                      OFFSET 0 0 0
                    }
                  }
                }
              }
            }
            JOINT Neck
            {
              OFFSET 5.0226 -0.0266342 0
              CHANNELS 3 Zrotation Xrotation Yrotation
              JOINT Head
              {
                OFFSET 6.69363 2.86102e-005 0
                CHANNELS 3 Zrotation Xrotation Yrotation
                End Site
                {
                  OFFSET 0 0 0
                }
              }
            }
          }
        }
      }
    }
  }
}
MOTION
Frames:	13
Frame Time:	0.0416667
36.3764 97.4534 -246.469 -58.1979 -85.9824 -58.3276 -173.103 7.36621 87.4523 -16.1163 13.293 -0.999163 64.7272 6.32833 7.89902 30.9948 1.73633 0.169937 175.403 5.92971 91.8159 -16.3169 -8.18513 -2.61374 68.6056 -4.09721 -2.17611 30.0009 0.327811 -4.96703 -0.103462 7.03077 -89.9609 12.8388 -0.186655 0.100455 1.16781 -0.182055 0.108563 -21.3674 -0.208221 0.0397048 -1.3548 -0.208225 0.0397017 92.7471 -52.1545 -96.2176 27.1557 -4.57636 5.12431 -13.457 -25.4611 -46.8891 -8.43917 -1.48041 10.4039 -103.665 -54.4831 60.5489 -18.8868 11.1006 3.65636 3.40554 9.99737 -31.6696 9.48413 0.824582 4.42561 9.91063 1.71142 2.66377 -2.60921 1.15426 0.271177 
36.4317 97.4629 -246.399 -58.669 -85.9145 -58.7371 -173.15 7.33137 87.4788 -16.2144 12.6839 -0.900313 65.213 6.48761 6.92402 30.5882 1.35065 1.01613 175.392 5.83867 91.8126 -16.203 -8.01463 -2.59963 68.5778 -4.0958 -2.17738 30.3114 0.263301 -3.66195 -0.0620723 7.03072 -89.9531 12.8179 -0.100736 0.10586 1.14695 -0.0959821 0.110183 -21.3882 -0.127897 0.0706905 -1.37558 -0.127898 0.0706842 92.8521 -52.2413 -96.045 27.1937 -4.53604 5.10092 -13.6289 -25.6394 -47.0217 -8.06545 -1.49138 11.001 -104.173 -54.2243 59.7536 -18.7638 11.0991 3.85729 3.37261 10.0073 -31.6401 9.85018 0.883382 4.7047 9.86921 1.65826 2.57611 -2.51799 1.12009 0.227887 
36.4639 97.4226 -246.267 -61.0043 -85.5686 -60.8764 -173.015 7.2205 87.6326 -16.151 12.656 -0.942283 65.2617 6.55699 7.51549 30.8545 1.60829 0.410886 175.502 5.56162 91.9408 -15.6893 -8.31041 -2.64731 68.1348 -3.98328 -2.13643 31.1732 0.265689 -3.37524 -0.0200649 7.03208 -89.9554 12.8092 -0.0184682 0.0913031 1.13821 -0.0144343 0.0920223 -21.3969 -0.0450582 0.0815321 -1.38428 -0.0450535 0.0815349 92.7515 -52.4712 -96.1562 26.7963 -4.74198 4.84028 -12.9625 -26.0171 -46.5765 -7.8791 -1.46847 10.9641 -103.341 -54.039 60.8216 -18.9209 11.3336 3.55151 3.53302 10.3875 -31.8974 10.0303 0.991954 5.57058 9.94467 1.72875 2.1812 -2.41067 1.27075 0.558309 
36.5101 97.4178 -246.226 -52.5132 -86.0301 -52.5277 -173.091 7.27814 87.5051 -15.7468 13.1847 -0.968652 65.3664 6.60195 7.15301 30.4987 1.24704 1.42382 175.256 5.52495 91.7498 -15.3679 -8.17506 -2.49139 68.6568 -4.16865 -2.21708 30.2174 0.266988 -3.74898 -0.0796086 7.00961 -89.9575 12.8547 -0.137644 0.101599 1.1838 -0.133046 0.107551 -21.3514 -0.161822 0.05553 -1.33876 -0.161818 0.0555297 92.8129 -52.5022 -96.0587 26.6204 -4.63233 5.12792 -13.8358 -26.0564 -47.3901 -6.9807 -1.39918 11.3555 -103.685 -54.196 60.4108 -18.7724 11.2839 3.62227 3.66816 10.5351 -32.0884 10.2474 1.04238 5.84809 9.88094 1.89542 2.28314 -2.38728 1.41905 0.797385 
36.5619 97.3773 -246.117 -51.4039 -85.9847 -51.4051 -173.202 7.17168 87.3944 -15.5539 13.2227 -0.891233 65.4682 6.94079 7.74164 30.4079 1.23057 0.70131 175.125 5.51691 91.6607 -15.3389 -8.33874 -2.40718 68.96 -4.26169 -2.25413 29.7251 0.298845 -4.4825 -0.0684947 7.01913 -89.958 12.8357 -0.115852 0.0979056 1.16471 -0.111427 0.1029 -21.3705 -0.139931 0.0585527 -1.35783 -0.139922 0.0585556 92.6765 -52.4061 -96.2792 26.6146 -4.64649 5.06748 -13.5387 -25.8665 -46.9768 -6.36363 -1.3061 11.0742 -103.519 -54.1847 60.6344 -18.7739 11.2672 3.37331 3.81758 10.7593 -32.1342 10.0251 1.05571 6.15412 9.93557 1.93043 2.04294 -2.52775 1.49912 0.809823 
36.6061 97.3947 -245.97 -47.8297 -85.9511 -47.8264 -173.13 7.17153 87.4268 -15.3326 12.8792 -0.949004 65.6283 6.79767 7.04127 30.4855 1.29242 0.705483 175.186 5.39553 91.6779 -14.8318 -8.27992 -2.4651 68.6651 -4.1669 -2.21507 30.5198 0.287756 -4.08572 -0.0479977 7.00071 -89.9616 12.8724 -0.0768612 0.0860667 1.20151 -0.0729909 0.0893672 -21.3337 -0.0991724 0.0589968 -1.32102 -0.099172 0.0589843 92.8463 -52.2979 -96.0437 26.6851 -4.77991 5.01819 -12.8925 -26.0809 -46.356 -7.60252 -1.4335 10.9333 -103.83 -54.1192 60.1819 -18.7635 11.2671 3.60342 3.66493 10.4309 -32.0906 9.79778 0.932052 5.2008 9.99669 1.86816 2.01376 -2.96195 1.44016 0.825358 
36.6585 97.3718 -245.8 -44.7574 -85.924 -44.837 -173.263 7.17492 87.2735 -15.1938 13.3264 -0.914436 65.5486 6.92664 7.58935 30.4711 1.28444 0.662122 175.085 5.55052 91.5557 -15.0193 -8.162 -2.41954 68.8899 -4.21695 -2.23252 30.5041 0.287729 -4.08508 -0.0503006 6.97999 -89.9502 12.9139 -0.0759745 0.108751 1.24299 -0.07111 0.111988 -21.2922 -0.105143 0.0808928 -1.27951 -0.105148 0.0808856 92.7557 -52.6513 -96.1189 26.3319 -4.59086 5.57832 -13.4827 -26.1617 -46.9924 -7.23523 -1.3836 10.7688 -103.852 -54.2127 60.1887 -18.8428 11.3275 3.71635 3.79453 10.6965 -32.0965 9.73088 0.957528 5.49098 10.1306 1.86902 2.22514 -3.13307 1.39107 0.401287 
36.8011 97.2883 -245.656 -38.9522 -86.0233 -38.9887 -173.693 7.5045 87.0124 -15.7442 12.8305 -0.525064 65.9417 7.47208 7.66473 30.4936 1.31349 0.515938 174.996 5.63501 91.4885 -15.0978 -7.81072 -2.35248 69.3327 -4.32589 -2.27036 29.5744 0.275607 -4.12141 -0.0685483 6.98551 -89.954 12.9029 -0.11405 0.105703 1.23191 -0.109285 0.110619 -21.3033 -0.140552 0.0665448 -1.29062 -0.140544 0.0665457 92.9086 -52.4947 -95.9169 26.3446 -4.72421 5.01187 -12.3171 -26.0472 -45.8953 -7.09378 -1.3757 10.9714 -103.941 -54.0383 59.9981 -19.0658 11.0583 3.88959 4.01236 10.6969 -32.2259 9.33891 0.922031 5.47754 10.3688 1.72693 2.39097 -3.1888 1.21055 0.0817403 
36.8551 97.3168 -245.515 -35.4668 -86.2644 -35.5697 -173.357 7.08802 87.1324 -15.2023 13.3036 -0.858256 66.182 7.36321 7.28914 30.2395 1.09541 0.70909 174.745 5.06608 91.3343 -14.179 -6.72774 -2.1409 69.1257 -4.30069 -2.26983 30.2873 0.178256 -2.00668 -0.0639871 6.99664 -89.9657 12.8806 -0.110587 0.0819371 1.20967 -0.106867 0.0867119 -21.3255 -0.130105 0.0449084 -1.31287 -0.130096 0.0449077 93.0706 -52.261 -95.7135 26.6696 -4.38096 5.50665 -13.1908 -25.9466 -46.6648 -6.14986 -1.27294 10.9688 -104.823 -54.4299 58.9492 -18.5283 11.3012 4.04836 3.38628 10.1315 -31.7534 9.66813 0.859605 4.62094 9.80928 1.59141 2.07458 -2.53419 1.16331 0.854494 
37.0792 97.1704 -245.346 -27.491 -86.5967 -27.5145 -173.673 7.39748 86.9306 -16.2258 12.865 -0.568207 66.9753 8.27146 6.86575 29.5964 0.606368 0.430533 174.67 5.34021 91.2822 -15.1463 -6.32826 -2.09254 69.7951 -4.43207 -2.30666 30.5452 0.201623 -2.31322 -0.0844001 7.01532 -89.9711 12.8432 -0.153703 0.0763147 1.1723 -0.150196 0.0829993 -21.3629 -0.169535 0.0265849 -1.35028 -0.169533 0.0265903 93.2229 -52.5414 -95.4385 26.1972 -4.72106 5.32132 -12.676 -25.8526 -46.2831 -6.68736 -1.29413 10.4345 -104.366 -54.1982 59.4801 -18.9933 11.4034 3.70487 3.19919 10.0302 -31.5052 9.97632 0.849335 4.3019 10.1799 1.50855 1.96352 -2.91514 1.09173 0.606761 
37.3224 97.1341 -244.98 -29.4685 -86.3214 -29.4608 -173.589 7.38776 86.8199 -16.2807 13.3464 -0.714878 66.7814 8.28765 7.85579 29.5011 0.660123 -1.0112 174.935 5.45678 91.2882 -15.4564 -6.68152 -2.43221 69.8712 -4.54216 -2.36539 31.0791 0.252938 -3.11951 -0.0420047 7.02295 -89.9739 12.828 -0.0708772 0.0606133 1.15704 -0.0681426 0.0636667 -21.3781 -0.0858207 0.0365091 -1.36548 -0.0858123 0.0365127 93.1241 -52.5448 -95.5862 25.98 -4.61842 5.27165 -12.5806 -25.8137 -45.9803 -6.26679 -1.26332 10.6666 -104.066 -54.1562 59.8726 -19.2681 11.403 3.62427 3.54213 10.4125 -31.7013 9.34633 0.795833 4.23528 10.1873 1.37266 2.01819 -3.14446 0.947115 0.693513 
37.5705 97.1274 -244.683 -20.8076 -86.5083 -20.6801 -173.641 8.00281 86.7712 -17.4461 13.6633 -0.683787 66.6058 8.08272 7.58118 30.4149 1.28926 0.0383852 175.22 5.75176 91.4347 -16.3382 -6.20487 -2.65971 69.7548 -4.50018 -2.34828 31.4921 0.325128 -4.65698 -0.0809845 7.03434 -89.9925 12.8052 -0.157139 0.0338346 1.13427 -0.1555 0.0406963 -21.401 -0.160049 -0.0149576 -1.38831 -0.160049 -0.0149707 93.25 -52.2007 -95.4544 26.3526 -4.46225 5.33353 -12.7076 -25.4134 -46.3023 -5.81283 -1.2286 10.9823 -103.982 -54.19 60.0008 -19.3826 11.3566 3.68568 3.65232 10.3336 -31.8869 8.58621 0.695477 3.816 10.0271 1.31995 2.30784 -2.8757 0.839106 0.409836 
37.7628 97.1344 -244.427 -20.0778 -86.7439 -20.0547 -173.541 8.55581 86.6027 -18.8595 14.1563 -0.959483 65.4487 7.42885 8.70894 31.3862 2.1165 -0.945915 175.267 5.92548 91.2935 -17.2628 -5.93517 -2.83583 69.5994 -4.39446 -2.29075 32.0259 0.341758 -4.98638 -0.0592221 7.07364 -89.9635 12.7266 -0.100142 0.0847351 1.05566 -0.0963283 0.0890557 -21.4795 -0.120995 0.0507186 -1.46687 -0.120986 0.0507222 93.1088 -52.256 -95.6574 26.1008 -4.66468 5.09573 -12.2729 -26.0585 -45.6636 -6.05641 -1.25782 10.9428 -103.967 -54.0557 59.9686 -19.3433 11.7932 3.66282 3.54433 10.6416 -31.9871 9.6728 0.840016 4.43293 9.9195 1.11426 2.28769 -3.69109 0.639817 0.0594256 
